<?xml version="1.0" encoding="utf-8"?>
<!-- Generator: Adobe Illustrator 28.2.0, SVG Export Plug-In . SVG Version: 6.00 Build 0)  -->
<svg version="1.1" id="Layer_1" xmlns="http://www.w3.org/2000/svg" xmlns:xlink="http://www.w3.org/1999/xlink" x="0px" y="0px"
	 viewBox="0 0 2500 2500" style="enable-background:new 0 0 2500 2500;" xml:space="preserve">
<style type="text/css">
	.st0{fill-rule:evenodd;clip-rule:evenodd;fill:#FFFFFF;}
	.st1{fill:#00CFFF;}
	.st2{fill:#FFFFFF;}
	.st3{fill:#FF0062;}
</style>
<g>
	<path class="st0" d="M218.9,2059.9c0-84.3,482-152.6,1076.5-152.6s1076.5,68.3,1076.5,152.6c0,84.3-482,152.6-1076.5,152.6
		C700.9,2212.5,218.9,2144.2,218.9,2059.9L218.9,2059.9z M1256.4,2113.8c135.8,0,245.8-22.7,245.8-50.9c0-28.1-110-50.8-245.8-50.8
		s-245.8,22.8-245.8,50.8C1010.6,2091,1120.7,2113.8,1256.4,2113.8L1256.4,2113.8z"/>
</g>
<g>
	<path class="st1" d="M520.5,1689.7c-65.6,0-127.3-25.6-173.7-72c-46.4-46.4-72-108.1-72-173.7v-229.9c0-65.6,25.6-127.3,72-173.7
		c46.4-46.4,108.1-72,173.7-72h479.6c65.6,0,127.3,25.6,173.7,72c46.4,46.4,72,108.1,72,173.7V1444c0,65.6-25.6,127.3-72,173.7
		c-46.4,46.4-108.1,72-173.7,72H520.5z"/>
	<path class="st2" d="M1000.1,973.9c32.4,0,63.9,6.4,93.5,18.9c28.6,12.1,54.3,29.4,76.4,51.5s39.4,47.8,51.5,76.4
		c12.5,29.6,18.9,61.1,18.9,93.5V1444c0,32.4-6.4,63.9-18.9,93.5c-12.1,28.6-29.4,54.3-51.5,76.4c-22.1,22.1-47.8,39.4-76.4,51.5
		c-29.6,12.5-61.1,18.9-93.5,18.9H520.5c-32.4,0-63.9-6.4-93.5-18.9c-28.6-12.1-54.3-29.4-76.4-51.5c-22.1-22.1-39.4-47.8-51.5-76.4
		c-12.5-29.6-18.9-61.1-18.9-93.5v-229.9c0-32.4,6.4-63.9,18.9-93.5c12.1-28.6,29.4-54.3,51.5-76.4c22.1-22.1,47.8-39.4,76.4-51.5
		c29.6-12.5,61.1-18.9,93.5-18.9H1000.1 M1000.1,963.1H520.5c-138.7,0-251.1,112.4-251.1,251.1V1444
		c0,138.7,112.4,251.1,251.1,251.1h479.6c138.7,0,251.1-112.4,251.1-251.1v-229.9C1251.2,1075.5,1138.7,963.1,1000.1,963.1
		L1000.1,963.1z"/>
</g>
<path class="st3" d="M1971.2,1695.2h-477.4c-139.3,0-252.2-112.9-252.2-252.2v-227.7c0-139.3,112.9-252.2,252.2-252.2h477.4
	c139.3,0,252.2,112.9,252.2,252.2v227.7C2223.4,1582.2,2110.5,1695.2,1971.2,1695.2z"/>
<path class="st2" d="M2213.9,960.7c-33.9,0-61.4,27.5-61.4,61.4v524.2c0,29.3-7,50.1-21.5,63.5c-22.6,20.9-64.2,25.7-93,23.5
	c-5.9-0.5-11.3-0.7-16.6-0.7h-497.2c-20.4,0-40.3-7.2-56.1-20.2l-123.5-102c-20.3-16.8-32-41.6-32-67.9v-328.1
	c0-48.6,39.5-88.1,88.1-88.1h607.5c34.2,0,68.1-8.3,98-24c28.5-15,53.5-36.7,72.6-62.9c19-26.2,32-56.8,37.4-88.4
	c5.7-33.3,3.2-68.1-7.4-100.7l-128.2-394.9c-17.5-53.9-55-97.6-105.5-123.1c-50.6-25.5-108-29.7-161.7-11.8l-185.9,62
	c-32.2,10.7-49.6,45.5-38.8,77.7c10.7,32.2,45.5,49.6,77.7,38.8l185.9-62c22.4-7.5,46.4-5.7,67.6,4.9c21.1,10.7,36.8,28.9,44.1,51.4
	L2092,788.2c8.8,27.1,4.2,55.9-12.5,79c-16.8,23.1-42.7,36.3-71.3,36.3h-607.5c-60.8,0-115.7,25.9-154.3,67.3
	c-38.5-41.3-93.4-67.3-154.3-67.3H484.6c-28.5,0-54.5-13.2-71.3-36.3c-16.8-23.1-21.3-51.9-12.5-79l128.2-394.9
	c7.3-22.5,23-40.8,44.1-51.4c21.1-10.7,45.1-12.4,67.6-4.9l185.9,62c32.2,10.7,66.9-6.7,77.7-38.8c10.7-32.2-6.7-66.9-38.8-77.7
	l-185.9-62c-53.7-17.9-111.2-13.7-161.7,11.8c-50.6,25.5-88,69.3-105.5,123.1L284,750.3c-10.6,32.5-13.1,67.4-7.4,100.7
	c5.4,31.7,18.4,62.3,37.4,88.4c19,26.2,44.1,47.9,72.6,62.9c29.9,15.7,63.8,24,98,24h607.5c48.6,0,88.1,39.5,88.1,88.1v328.1
	c0,26.4-11.7,51.1-32,67.9l-123.5,102c-15.7,13-35.7,20.2-56.1,20.2H471.4c-5.2,0-10.7,0.2-16.6,0.7c-28.8,2.2-70.5-2.6-93-23.5
	c-14.5-13.4-21.5-34.2-21.5-63.5v-524.2c0-33.9-27.5-61.4-61.4-61.4s-61.4,27.5-61.4,61.4v524.2c0,32.7,5.4,62.6,16.2,88.8
	c10.2,25,25.3,46.8,44.7,64.8c28.8,26.7,66.1,44.2,110.9,52.1c20.1,3.5,38.5,4.5,53,4.5c9.1,0,16.6-0.4,22-0.8
	c2.8-0.2,5.1-0.3,7.2-0.3h497.2c48.9,0,96.6-17.1,134.3-48.3l123.5-102c7.1-5.9,13.8-12.2,20-18.8c6.2,6.6,12.9,12.9,20,18.8
	l123.5,102c37.7,31.1,85.4,48.3,134.3,48.3h497.2c2.1,0,4.4,0.1,7.2,0.3c5.4,0.4,12.9,0.8,22,0.8c14.5,0,32.9-1,53-4.5
	c44.8-7.9,82.1-25.4,110.9-52.1c19.4-18,34.4-39.8,44.7-64.8c10.7-26.2,16.2-56.1,16.2-88.8v-524.2
	C2275.3,988.2,2247.8,960.7,2213.9,960.7z"/>
</svg>
