<?xml version="1.0" encoding="utf-8"?>
<!-- Generator: Adobe Illustrator 28.2.0, SVG Export Plug-In . SVG Version: 6.00 Build 0)  -->
<svg version="1.1" id="Layer_1" xmlns="http://www.w3.org/2000/svg" xmlns:xlink="http://www.w3.org/1999/xlink" x="0px" y="0px"
	 viewBox="0 0 2500 2500" style="enable-background:new 0 0 2500 2500;" xml:space="preserve">
<style type="text/css">
	.st0{fill-rule:evenodd;clip-rule:evenodd;fill:#FFFFFF;}
</style>
<g>
	<path class="st0" d="M1408.6,753.3c22.9-27.6,146.4-173.8,146.4-173.8H2021c236,0,401.1,123.6,363.3,282.4
		c-37.7,158.8-262.6,282.5-497.5,282.5h-312.4l93.7-394.6h220.3l-64.2,270.2h49.4c131.5,0,256-47.9,282.2-158.1
		c24-101.1-63.2-158.1-204.8-158.1h-51.7l-214.4,0.2l-506.1,571.2L980.1,714c0,0-1.5-3.6-3.3-8.4c-0.5-1.2-4.3-5.1-6.3-4.4
		c-3.7,1.4-3.1,7.8-2.5,9.2c1.6,3.4,2.1,4.8,2.5,6.4c17.7,43.3,18.8,116,11.5,145.1c-39.3,158.5-262.6,282.5-497.5,282.5H172.2
		L266,749.8h220.3L422,1020h49.4c131.5,0,255.3-47.9,281.4-158.1c24-101.1-62.5-158.1-204.1-158.1h-51.7l-220.3-0.1l29.5-124.3
		h291.9l387.1-0.5v0.5h159.4c0,0,45,131.8,58.9,171.7c66.8,190.7,55.7,203.7,55.7,203.7S1251.4,942.5,1408.6,753.3L1408.6,753.3z
		 M110.3,1430.2c0-84.3,482-152.6,1076.5-152.6c594.5,0,1076.5,68.3,1076.5,152.6c0,84.3-482,152.6-1076.5,152.6
		C592.3,1582.8,110.3,1514.5,110.3,1430.2L110.3,1430.2z M1147.8,1484.1c135.8,0,245.8-22.7,245.8-50.9c0-28.1-110-50.8-245.8-50.8
		c-135.8,0-245.8,22.8-245.8,50.8C902,1461.3,1012.1,1484.1,1147.8,1484.1L1147.8,1484.1z M2180.9,1551.9h-9.9l-4.4,30.8h-4.8
		l4.3-30.8h-9.9l0.6-4.4h24.7L2180.9,1551.9L2180.9,1551.9z M2217.5,1582.8h-4.6v-26.7h-0.1l-14.1,26.7l-6.1-27h-0.1l-8.7,27h-4.6
		l11.6-35.2h4l5.5,23.9l12.7-23.9h4.6L2217.5,1582.8L2217.5,1582.8z M473.9,1850.9h0.8l66.4-133.8h62.5L487.7,1921h-34l-113.8-203.9
		h62.5L473.9,1850.9L473.9,1850.9z M803.9,1915.7h-58.1v-198.6h58.1V1915.7z M972.6,1717.1h83c86.2,0,143.9,42.9,143.9,99.6
		c0,55.9-59.3,99.1-144.3,99.1h-82.6L972.6,1717.1L972.6,1717.1z M1030.7,1882h9.5c71.6,0,99.2-26.3,99.2-65.6
		c0-43.2-33.2-65.6-99.2-65.6h-9.5V1882L1030.7,1882z M1412.6,1750.8v43.7h92.5v33.8h-92.5v53.7h96.1v33.7h-154.2v-198.6h154.2v33.7
		L1412.6,1750.8L1412.6,1750.8z M1659.5,1816.1c0-55.6,60.5-104.3,147.4-104.3c86.9,0,147.5,48.7,147.5,104.3
		c0,56.9-60.5,104.9-147.5,104.9C1720,1921,1659.5,1873,1659.5,1816.1L1659.5,1816.1z M1719.6,1814.6c0,30,37.9,68.2,87.3,68.2
		c49.4,0,87.3-38.2,87.3-68.2c0-32.2-36.4-64.6-87.3-64.6C1756,1750,1719.6,1782.4,1719.6,1814.6z"/>
</g>
</svg>
