<?xml version="1.0" encoding="utf-8"?>
<!-- Generator: Adobe Illustrator 28.2.0, SVG Export Plug-In . SVG Version: 6.00 Build 0)  -->
<svg version="1.1" id="Layer_1" xmlns="http://www.w3.org/2000/svg" xmlns:xlink="http://www.w3.org/1999/xlink" x="0px" y="0px"
	 viewBox="0 0 35.8 35.7" style="enable-background:new 0 0 35.8 35.7;" xml:space="preserve">
<style type="text/css">
	.st0{fill:#EF7622;}
	.st1{fill:#FFFFFF;}
</style>
<path class="st0" d="M30.9,10L28.2,0L0,7.5l2.7,10c1.7,0.4,3.2,1.6,3.6,3.4c0.5,1.8-0.1,3.6-1.4,4.8l2.7,10l28.2-7.5l-2.7-10.1
	c-1.7-0.4-3.2-1.6-3.6-3.4C29,12.9,29.6,11.1,30.9,10z"/>
<path class="st1" d="M20.4,10.3L12,12.5l1.7,6.3l8.4-2.2l1.7,6.3l-8.4,2.2l1.7,6.3l-8.4,2.2l-2-7.6c1.2-1.5,1.8-3.5,1.2-5.6
	c-0.6-2-2-3.5-3.9-4.2L1.9,8.5L18.7,4C18.7,4,20.4,10.3,20.4,10.3z"/>
</svg>
