<?xml version="1.0" encoding="UTF-8"?>
<svg id="Layer_1" data-name="Layer 1" xmlns="http://www.w3.org/2000/svg" viewBox="0 0 950 950">
  <defs>
    <style>
      .cls-1 {
        fill: #fff;
      }

      .cls-2 {
        fill: #282a2d;
      }

      .cls-3 {
        fill: #ebaf00;
      }
    </style>
  </defs>
  <path class="cls-2" d="m212.62.09h523.88c117.57,0,213.02,95.45,213.02,213.02v523.88c0,117.57-95.45,213.02-213.02,213.02H212.62C95.06,950-.4,854.55-.4,736.98V213.11C-.4,95.54,95.06.09,212.62.09Z"/>
  <g>
    <g>
      <path class="cls-1" d="m210.34,358.19c-31.37,0-51.57,9.04-68.58,30.3v-23.39h-60.61v288.14s1.06.53,4.25,1.06c4.25,1.06,26.58,5.85,43.06-7.97,14.35-12.23,17.54-26.58,17.54-42.53v-41.47c17.54,18.61,37.21,26.58,64.86,26.58,59.54,0,105.26-48.38,105.26-112.71,0-69.64-44.13-118.02-105.79-118.02Zm-11.7,175.97c-33.49,0-60.07-27.64-60.07-61.14s31.37-59.54,60.07-59.54c34.02,0,60.07,26.05,60.07,60.07s-26.58,60.61-60.07,60.61Z"/>
      <path class="cls-1" d="m402.26,469.3c0,24.99,2.66,55.29,27.11,88.25.53.53,1.59,2.13,1.59,2.13-10.1,17.01-22.33,28.71-38.81,28.71-12.76,0-25.52-6.91-36.15-18.61-11.16-12.76-16.48-29.24-16.48-46.78v-229.66h62.2l.53,175.97Z"/>
      <polygon class="cls-3" points="710.07 581.47 634.58 581.47 707.95 473.55 634.58 365.1 710.07 365.1 782.91 473.55 710.07 581.47"/>
      <polygon class="cls-1" points="802.58 461.33 867.97 365.1 792.48 365.1 765.36 404.97 802.58 461.33"/>
      <path class="cls-1" d="m765.36,542.13l12.76,17.54c12.23,19.14,28.18,28.71,46.78,28.71,19.67-.53,33.49-17.54,38.81-23.92,0,0-9.57-8.51-21.8-22.86-16.48-19.14-38.28-54.23-38.81-55.82l-37.75,56.35Z"/>
    </g>
    <path class="cls-1" d="m578.76,519.27c-12.76,11.7-21.27,18.08-38.81,18.08-31.37,0-49.44-22.33-52.1-46.78h166.4c1.06-3.19,1.59-7.44,1.59-14.35,0-67.52-49.44-118.02-114.3-118.02-61.67,0-112.17,51.57-112.17,115.9s50.5,114.3,113.77,114.3c44.13,0,82.4-24.99,103.14-69.11h-67.52Zm-36.68-110.05c27.64,0,48.38,18.08,53.16,42h-105.26c5.32-24.99,24.99-42,52.1-42Z"/>
  </g>
</svg>