<?xml version="1.0" encoding="utf-8"?>
<!-- Generator: Adobe Illustrator 28.2.0, SVG Export Plug-In . SVG Version: 6.00 Build 0)  -->
<svg version="1.1" id="Layer_1" xmlns="http://www.w3.org/2000/svg" xmlns:xlink="http://www.w3.org/1999/xlink" x="0px" y="0px"
	 viewBox="0 0 250.1 74.1" style="enable-background:new 0 0 250.1 74.1;" xml:space="preserve">
<style type="text/css">
	.st0{fill:#FFFFFF;}
</style>
<path d="M239.8,74.1H0V0h239.8c5.7,0,10.3,4.6,10.3,10.3v53.5C250.1,69.5,245.5,74.1,239.8,74.1z"/>
<g>
	<path class="st0" d="M66.5,42.9c-0.2,7.5-1.2,10-9.9,10L50.3,53l-6.9-0.1c-10.2-0.2-10.7-2.7-11-12.2V9H17.1v36.3
		c0,19.4,11,20.1,27.1,20.1c4.2,0,8.4,0.1,12.6,0.1c14.9,0,25.2-2.3,25.2-19.4V9H66.5V42.9z"/>
	<path class="st0" d="M211.8,9h-44.5v56h15.4V21.5h26.1c10.5,0,10.6,4,10.6,12.6v5.7c0,8.9-0.7,12.8-10.8,12.8H191L183.4,65h34.1
		c8.8,0,15.3-4.3,16.8-13.1c0.6-3.9,0.6-8,0.6-11.9v-8.1C234.9,13.5,229.9,9,211.8,9z"/>
	<polygon class="st0" points="141.5,30.2 115.5,30.2 107.8,42.8 141.5,42.8 141.5,65 157,65 157,9 141.5,9 	"/>
	<rect x="91.1" y="9" class="st0" width="15.2" height="56"/>
</g>
</svg>
