<?xml version="1.0" encoding="utf-8"?>
<!-- Generator: Adobe Illustrator 28.2.0, SVG Export Plug-In . SVG Version: 6.00 Build 0)  -->
<svg version="1.1" id="Layer_1" xmlns="http://www.w3.org/2000/svg" xmlns:xlink="http://www.w3.org/1999/xlink" x="0px" y="0px"
	 viewBox="0 0 1819.9 584.7" style="enable-background:new 0 0 1819.9 584.7;" xml:space="preserve">
<style type="text/css">
	.st0{fill-rule:evenodd;clip-rule:evenodd;fill:#FFFFFF;}
</style>
<g>
	<g>
		<path class="st0" d="M1509.9,0c198.4,0,337,104,305.5,237.3c-39.3,166-275,238-418.3,238h-262.7l79-332h184.9l-53.9,226.9h41.6
			c110.6,0,215.3-40.1,237.3-132.9C1649,129,1526.5,104.8,1451,104.8H991.1c-118.6,0-213.8,48.1-233.4,132.9
			c-25.4,110.2,98.2,132.9,174.1,132.9h181.4l-24.3,104.8H872.1c-197.6,0-336.3-104.4-307-237.6c5.4-24.3,35-85.1,66.6-121.7l5-5.4
			c5.8-6.9,0.4-11.2-5.8-4.2l-5.8,6.9L207.2,584.7L0,0h178.7L228,144.4c49.7,144.8,47,171,47,171s0.4-15,125.2-169.5L523.5,0H1509.9
			z"/>
	</g>
</g>
</svg>
