<?xml version="1.0" encoding="utf-8"?>
<!-- Generator: Adobe Illustrator 28.2.0, SVG Export Plug-In . SVG Version: 6.00 Build 0)  -->
<svg version="1.1" id="Layer_1" xmlns="http://www.w3.org/2000/svg" xmlns:xlink="http://www.w3.org/1999/xlink" x="0px" y="0px"
	 viewBox="0 0 757 533.3" style="enable-background:new 0 0 757 533.3;" xml:space="preserve">
<style type="text/css">
	.st0{fill:#FF0000;}
	.st1{fill:#FFFFFF;}
</style>
<path class="st0" d="M741.2,83.3c-8.7-32.8-34.4-58.6-66.9-67.4C615.2,0,378.5,0,378.5,0S141.8,0,82.7,15.9
	c-32.6,8.8-58.2,34.6-66.9,67.4C0,142.7,0,266.7,0,266.7s0,124,15.8,183.4c8.7,32.8,34.4,58.6,66.9,67.4
	c59,15.9,295.7,15.9,295.7,15.9s236.7,0,295.7-15.9c32.6-8.8,58.2-34.6,66.9-67.4C757,390.6,757,266.7,757,266.7
	S757,142.7,741.2,83.3"/>
<path class="st1" d="M301.1,379.2l197.8-112.5L301.1,154.1V379.2z"/>
</svg>
